<svg width="17" height="17" viewBox="0 0 17 17" fill="none" xmlns="http://www.w3.org/2000/svg">
<path fill-rule="evenodd" clip-rule="evenodd" d="M7.13817 8.55998L0.774031 2.19585C0.383507 1.80532 0.383507 1.17216 0.774031 0.781633C1.16456 0.391109 1.79772 0.391109 2.18824 0.781633L8.55238 7.14577L14.9202 0.777912C15.3108 0.387388 15.9439 0.387387 16.3345 0.777912C16.725 1.16844 16.725 1.8016 16.3345 2.19213L2.19256 16.334C1.80204 16.7245 1.16888 16.7245 0.778351 16.334C0.387827 15.9435 0.387827 15.3103 0.778351 14.9198L7.13817 8.55998ZM10.5356 10.5349C10.9261 10.1444 11.5593 10.1444 11.9498 10.5349L16.3345 14.9196C16.725 15.3101 16.725 15.9433 16.3345 16.3338C15.944 16.7243 15.3108 16.7243 14.9203 16.3338L10.5356 11.9491C10.1451 11.5586 10.1451 10.9254 10.5356 10.5349Z" fill="url(#paint0_linear_2605_41)"/>
<defs>
<linearGradient id="paint0_linear_2605_41" x1="0.777962" y1="16.3344" x2="16.3341" y2="0.778276" gradientUnits="userSpaceOnUse">
<stop stop-color="#137177"/>
<stop offset="1" stop-color="#1D9A6C"/>
</linearGradient>
</defs>
</svg>
