<svg width="77" height="16" viewBox="0 0 77 16" fill="none" xmlns="http://www.w3.org/2000/svg">
<path d="M2.83771 2.21902C3.3931 2.21902 3.84436 1.77003 3.84436 1.21742C3.84436 0.664817 3.3931 0.21582 2.83771 0.21582C2.28231 0.21582 1.83105 0.664817 1.83105 1.21742C1.83105 1.77003 2.28231 2.21902 2.83771 2.21902Z" fill="#0D4A60"/>
<path d="M2.16951 3.04785H3.50593V12.5458C3.50593 13.5128 3.41047 14.4454 2.82904 15.093C2.22158 15.7751 1.24096 15.9737 0 15.9737V14.644C1.18889 14.644 1.62279 14.4367 1.82239 14.2122C2.03934 13.9705 2.16083 13.5128 2.16083 12.494V3.04785H2.16951Z" fill="#0D4A60"/>
<path fill-rule="evenodd" clip-rule="evenodd" d="M13.1474 11.0866C12.2796 11.9845 11.056 12.5458 9.71091 12.5458C7.07279 12.5458 4.93799 10.4217 4.93799 7.79682C4.93799 5.17193 7.07279 3.04785 9.71091 3.04785C11.0647 3.04785 12.2796 3.6091 13.1474 4.50708V3.04785H14.4838V12.5458H13.1474V11.0866ZM9.71091 11.1643C7.84513 11.1643 6.32647 9.65323 6.32647 7.79682C6.32647 5.9404 7.84513 4.42937 9.71091 4.42937C11.5767 4.42937 13.0953 5.9404 13.0953 7.79682C13.0953 9.65323 11.5767 11.1643 9.71091 11.1643Z" fill="#0D4A60"/>
<path fill-rule="evenodd" clip-rule="evenodd" d="M39.9262 11.0866C39.0584 11.9845 37.8348 12.5458 36.4897 12.5458C33.8516 12.5458 31.7168 10.4217 31.7168 7.79682C31.7168 5.17193 33.8516 3.04785 36.4897 3.04785C37.8435 3.04785 39.0584 3.6091 39.9262 4.50708V3.04785H41.2626V12.5458H39.9262V11.0866ZM36.481 11.1643C34.6153 11.1643 33.0966 9.65323 33.0966 7.79682C33.0966 5.9404 34.6153 4.42937 36.481 4.42937C38.3468 4.42937 39.8655 5.9404 39.8655 7.79682C39.8655 9.65323 38.3555 11.1643 36.481 11.1643Z" fill="#0D4A60"/>
<path fill-rule="evenodd" clip-rule="evenodd" d="M58.3428 3.04785H57.0063V15.706H58.3428V11.0866C59.2106 11.9845 60.4342 12.5458 61.788 12.5458C64.4261 12.5458 66.5609 10.4217 66.5609 7.79682C66.5609 5.17193 64.4261 3.04785 61.788 3.04785C60.4342 3.04785 59.2106 3.6091 58.3428 4.50708V3.04785ZM61.788 11.1643C59.9222 11.1643 58.4035 9.65323 58.4035 7.79682C58.4035 5.9404 59.9222 4.42937 61.788 4.42937C63.6537 4.42937 65.1724 5.9404 65.1724 7.79682C65.1724 9.65323 63.6537 11.1643 61.788 11.1643Z" fill="#0D4A60"/>
<path fill-rule="evenodd" clip-rule="evenodd" d="M43.3286 0H44.665V12.5459H43.3286V0Z" fill="#0D4A60"/>
<path d="M55.9472 7.79682C55.9472 10.4217 53.8124 12.5458 51.1743 12.5458C48.5362 12.5458 46.4014 10.4217 46.4014 7.79682C46.4014 5.17193 48.5362 3.04785 51.1743 3.04785C53.8124 3.04785 55.9472 5.17193 55.9472 7.79682ZM47.7899 7.79682C47.7899 9.65323 49.3085 11.1643 51.1743 11.1643C53.0401 11.1643 54.5587 9.65323 54.5587 7.79682C54.5587 5.9404 53.0401 4.42937 51.1743 4.42937C49.2998 4.42937 47.7899 5.93177 47.7899 7.79682Z" fill="#0D4A60"/>
<path fill-rule="evenodd" clip-rule="evenodd" d="M75.0994 3.88518C76.0367 4.52413 76.7049 5.47393 76.9999 6.57051L75.7676 6.89862L69.1376 8.74639C69.2504 9.13495 69.4414 9.50623 69.693 9.83434C70.179 10.4733 70.8819 10.9137 71.6629 11.0863C72.4526 11.259 73.2684 11.1468 73.98 10.7669C74.6916 10.3869 75.2383 9.7739 75.5333 9.03134L76.8264 9.53213C76.4098 10.5855 75.6375 11.449 74.6308 11.9843C73.6328 12.5197 72.47 12.6751 71.3592 12.4333C70.2484 12.1916 69.2678 11.5699 68.5736 10.6632C67.888 9.76526 67.5409 8.65142 67.6103 7.5203C67.671 6.38918 68.1396 5.32714 68.9207 4.50687C69.7017 3.68659 70.7517 3.17715 71.8799 3.06491C73.0341 2.95266 74.1622 3.2376 75.0994 3.88518ZM69.0335 7.39078C69.1203 6.66549 69.4414 5.99199 69.9447 5.46529C70.5001 4.88678 71.2464 4.52414 72.0448 4.43779C72.8431 4.35145 73.6502 4.55867 74.3097 5.0163C74.5961 5.20626 74.8391 5.44803 75.0474 5.70706L69.0335 7.39078Z" fill="#0D4A60"/>
<path d="M26.0532 0H24.7168V12.6582H26.0532V8.45316H26.9384L30.2794 12.5373H32.015L28.0665 7.7365L31.7894 3.03934H30.0451L26.7648 7.12345H26.0706V0H26.0532Z" fill="#0D4A60"/>
<path d="M23.6495 11.3892C22.9552 11.985 22.1134 12.3649 21.2023 12.4944C20.2997 12.6239 19.3712 12.4944 18.5468 12.1145C17.7137 11.7346 17.0108 11.1302 16.5161 10.3703C16.0215 9.61051 15.7611 8.72116 15.7524 7.8059C15.7524 6.89928 16.0128 6.00993 16.4988 5.24146C16.9934 4.47299 17.6963 3.86858 18.5207 3.48866C19.3452 3.10874 20.2737 2.97059 21.1762 3.10011C22.0787 3.22099 22.9292 3.60955 23.6234 4.19669L22.7209 5.24146C22.2263 4.81837 21.6275 4.5507 20.9853 4.46436C20.3431 4.37801 19.6923 4.47299 19.1022 4.74066C18.5121 5.00833 18.0174 5.44005 17.6703 5.98402C17.3232 6.528 17.1409 7.15832 17.1409 7.8059C17.1409 8.45349 17.3318 9.08381 17.679 9.61915C18.0261 10.1631 18.5294 10.5948 19.1195 10.8625C19.7096 11.1302 20.3605 11.2252 21.0027 11.1302C21.6448 11.0352 22.2436 10.7675 22.7383 10.3444L23.6495 11.3892Z" fill="#0D4A60"/>
</svg>
