<svg width="24" height="20" viewBox="0 0 24 20" fill="none" xmlns="http://www.w3.org/2000/svg">
<path fill-rule="evenodd" clip-rule="evenodd" d="M9.70833 2C5.43376 2 2 5.39747 2 9.55C2 13.7025 5.43376 17.1 9.70833 17.1C12.1887 17.1 14.3905 15.9541 15.7998 14.1771C16.1212 13.7719 16.6985 13.6786 17.1311 13.9619L23.5478 18.1634C24.0098 18.4659 24.1392 19.0857 23.8366 19.5478C23.5341 20.0098 22.9143 20.1392 22.4522 19.8366L16.7627 16.1112C14.992 17.9527 12.4842 19.1 9.70833 19.1C4.36395 19.1 0 14.8415 0 9.55C0 4.25846 4.36395 0 9.70833 0C15.0527 0 19.4167 4.25846 19.4167 9.55C19.4167 10.1023 18.969 10.55 18.4167 10.55C17.8644 10.55 17.4167 10.1023 17.4167 9.55C17.4167 5.39747 13.9829 2 9.70833 2Z" fill="url(#paint0_linear_2080_97)"/>
<defs>
<linearGradient id="paint0_linear_2080_97" x1="-0.000581034" y1="10.0003" x2="23.9995" y2="10.0003" gradientUnits="userSpaceOnUse">
<stop stop-color="#137177"/>
<stop offset="1" stop-color="#1D9A6C"/>
</linearGradient>
</defs>
</svg>
