<svg width="41" height="24" viewBox="0 0 41 24" fill="none" xmlns="http://www.w3.org/2000/svg">
<path fill-rule="evenodd" clip-rule="evenodd" d="M6.34322 0.0898438H1.96716C0.716857 0.0898438 0.466797 0.677486 0.466797 1.32764C0.466797 2.48667 1.94965 8.23557 7.37472 15.8387C10.9906 21.0312 16.0856 23.8456 20.7217 23.8456C23.5036 23.8456 23.8475 23.2204 23.8475 22.1439V18.2192C23.8475 16.9689 24.11 16.7189 24.9915 16.7189C25.6416 16.7189 26.7544 17.0439 29.35 19.5471C32.317 22.514 32.8059 23.8456 34.475 23.8456H38.8511C40.1014 23.8456 40.7265 23.2204 40.3652 21.9864C39.9713 20.7573 38.5548 18.9732 36.6743 16.8589C35.6541 15.6536 34.1237 14.3545 33.6611 13.7056C33.0109 12.8717 33.1985 12.5003 33.6611 11.7589C33.6611 11.7589 38.9924 4.24835 39.55 1.69898C39.8276 0.771259 39.55 0.0898438 38.2247 0.0898438H33.8499C32.7371 0.0898438 32.2245 0.677486 31.9469 1.32764C31.9469 1.32764 29.7214 6.75145 26.5694 10.2748C25.5491 11.2951 25.0852 11.6201 24.5289 11.6201C24.2513 11.6201 23.8487 11.2951 23.8487 10.3686V1.69898C23.8487 0.586215 23.5249 0.0898438 22.5984 0.0898438H15.7217C15.0266 0.0898438 14.609 0.606219 14.609 1.09634C14.609 2.15034 16.1843 2.39415 16.3469 5.35987V11.8052C16.3469 13.218 16.0918 13.4743 15.5342 13.4743C14.0513 13.4743 10.443 8.02551 8.30244 1.79151C7.88234 0.577462 7.46099 0.0898438 6.34322 0.0898438Z" fill="url(#paint0_linear_2122_242)"/>
<defs>
<linearGradient id="paint0_linear_2122_242" x1="0.465828" y1="11.968" x2="40.4658" y2="11.968" gradientUnits="userSpaceOnUse">
<stop stop-color="#137177"/>
<stop offset="1" stop-color="#1D9A6C"/>
</linearGradient>
</defs>
</svg>
