<svg width="29" height="32" viewBox="0 0 29 32" fill="none" xmlns="http://www.w3.org/2000/svg">
<path d="M29 16.3637C29 15.2291 28.9058 14.1382 28.731 13.0909H14.7959V19.28H22.7588C22.4158 21.28 21.3734 22.9746 19.8064 24.1091C18.4814 25.0691 16.7866 25.6364 14.7959 25.6364C10.9423 25.6364 7.68043 22.8218 6.51693 19.04C6.22102 18.08 6.05287 17.0546 6.05287 16C6.05287 14.9455 6.22101 13.92 6.51693 12.96C7.68043 9.1782 10.9423 6.36364 14.7959 6.36364C16.9682 6.36364 18.9186 7.17091 20.452 8.75637L24.6957 4.16727C22.1334 1.58546 18.7841 0 14.7959 0C9.01206 0 4.00835 3.58547 1.57375 8.81457C0.57166 10.9746 0 13.4182 0 16C0 18.5818 0.571665 21.0254 1.57375 23.1855C4.00835 28.4145 9.01206 32 14.7959 32C18.7908 32 22.1401 30.5673 24.5881 28.1237C27.3859 25.3382 29 21.2364 29 16.3637Z" fill="#E7FFF7"/>
</svg>
