<svg width="31" height="31" viewBox="0 0 31 31" fill="none" xmlns="http://www.w3.org/2000/svg">
<path d="M15.4936 0C6.92432 0 0 6.93706 0 15.4936C0 22.0609 4.08062 27.6717 9.84451 29.9288C9.70424 28.7046 9.58948 26.8174 9.89551 25.4784C10.1761 24.267 11.7063 17.7762 11.7063 17.7762C11.7063 17.7762 11.2472 16.8453 11.2472 15.4809C11.2472 13.3258 12.4969 11.7191 14.0526 11.7191C15.3789 11.7191 16.0165 12.7137 16.0165 13.8996C16.0165 15.2258 15.1748 17.2151 14.7285 19.0642C14.3587 20.6072 15.5064 21.8696 17.0239 21.8696C19.7783 21.8696 21.8951 18.9621 21.8951 14.7795C21.8951 11.0687 19.23 8.48005 15.4171 8.48005C11.0049 8.48005 8.41628 11.7828 8.41628 15.2003C8.41628 16.5265 8.92636 17.9547 9.56396 18.7326C9.6915 18.8856 9.70424 19.0259 9.66599 19.1789C9.55122 19.6635 9.28341 20.7219 9.23242 20.9387C9.16865 21.2193 9.00286 21.283 8.70957 21.1427C6.79678 20.2246 5.5981 17.3937 5.5981 15.1238C5.5981 10.2398 9.14314 5.75112 15.8379 5.75112C21.2065 5.75112 25.3892 9.57671 25.3892 14.703C25.3892 20.0461 22.0226 24.3435 17.3554 24.3435C15.7869 24.3435 14.3077 23.5274 13.8104 22.5582C13.8104 22.5582 13.0325 25.5167 12.8412 26.2435C12.4969 27.5952 11.5533 29.2785 10.9157 30.3114C12.3694 30.7577 13.8996 31 15.5064 31C24.0629 31 31 24.0629 31 15.5064C30.9873 6.93706 24.0502 0 15.4936 0Z" fill="#E7FFF7"/>
</svg>
