<svg width="38" height="31" viewBox="0 0 38 31" fill="none" xmlns="http://www.w3.org/2000/svg">
<path fill-rule="evenodd" clip-rule="evenodd" d="M2.6123 13.3453C12.8128 8.97048 19.6148 6.08634 23.0181 4.69286C32.7355 0.7142 34.7546 0.0230651 36.0707 0.00024333C36.3602 -0.00477605 37.0074 0.0658399 37.4266 0.400706C37.7806 0.683461 37.878 1.06542 37.9246 1.3335C37.9712 1.60159 38.0292 2.21229 37.9831 2.68947C37.4565 8.13595 35.178 21.3531 34.0188 27.4533C33.5283 30.0345 32.5625 30.8999 31.6275 30.9846C29.5955 31.1687 28.0525 29.6627 26.0845 28.3928C23.0048 26.4056 21.265 25.1685 18.2757 23.2293C14.821 20.9883 17.0605 19.7566 19.0294 17.7436C19.5446 17.2168 28.4976 9.20056 28.6708 8.47336C28.6925 8.38241 28.7126 8.0434 28.508 7.86439C28.3034 7.68537 28.0015 7.74659 27.7836 7.79527C27.4747 7.86428 22.5549 11.0653 13.0242 17.3983C11.6278 18.3423 10.3629 18.8022 9.22963 18.7781C7.98028 18.7515 5.57703 18.0827 3.79046 17.511C1.59915 16.8098 -0.142449 16.4391 0.00920586 15.2483C0.0881969 14.628 0.955895 13.9937 2.6123 13.3453Z" fill="#E7FFF7"/>
</svg>
