<svg width="36" height="21" viewBox="0 0 36 21" fill="none" xmlns="http://www.w3.org/2000/svg">
<path fill-rule="evenodd" clip-rule="evenodd" d="M5.28878 0H1.35033C0.225054 0 0 0.519473 0 1.09421C0 2.11879 1.33457 7.20079 6.21713 13.9219C9.47142 18.5121 14.0569 21 18.2294 21C20.7331 21 21.0426 20.4474 21.0426 19.4957V16.0263C21.0426 14.9211 21.2789 14.7 22.0722 14.7C22.6574 14.7 23.6588 14.9874 25.9949 17.2001C28.6652 19.8229 29.1052 21 30.6074 21H34.5459C35.6711 21 36.2338 20.4474 35.9086 19.3565C35.5541 18.27 34.2792 16.6928 32.5868 14.8238C31.6685 13.7583 30.2912 12.6099 29.8749 12.0363C29.2897 11.2991 29.4585 10.9708 29.8749 10.3154C29.8749 10.3154 34.673 3.67611 35.1749 1.42247C35.4247 0.602369 35.1749 0 33.9821 0H30.0448C29.0433 0 28.5819 0.519473 28.3321 1.09421C28.3321 1.09421 26.3291 5.88884 23.4923 9.00347C22.5741 9.90537 22.1566 10.1927 21.6559 10.1927C21.4061 10.1927 21.0437 9.90537 21.0437 9.08637V1.42247C21.0437 0.43879 20.7523 0 19.9184 0H13.7294C13.1038 0 12.728 0.456474 12.728 0.889737C12.728 1.82147 14.1458 2.037 14.2921 4.65868V10.3563C14.2921 11.6053 14.0625 11.8318 13.5607 11.8318C12.2261 11.8318 8.97855 7.01511 7.05208 1.50426C6.67399 0.431053 6.29477 0 5.28878 0Z" fill="#E7FFF7"/>
</svg>
