<svg width="31" height="30" viewBox="0 0 31 30" fill="none" xmlns="http://www.w3.org/2000/svg">
<path fill-rule="evenodd" clip-rule="evenodd" d="M24.2895 14.1943C23.7272 14.5878 22.9524 14.4511 22.5589 13.8889L19.297 9.22909C18.9035 8.66687 19.0402 7.89206 19.6024 7.49851C20.1646 7.10496 20.9394 7.24169 21.333 7.80391L24.5948 12.4637C24.9884 13.0259 24.8517 13.8007 24.2895 14.1943ZM15.9342 3.31378C16.4202 3.49509 16.7425 3.95926 16.7425 4.47802L16.7425 25.5225C16.7425 26.2087 16.1862 26.7651 15.4999 26.7651C14.8136 26.7651 14.2573 26.2087 14.2573 25.5225L14.2573 7.80911L8.36197 14.6114C7.91251 15.13 7.12773 15.1861 6.60912 14.7366C6.09051 14.2872 6.03446 13.5024 6.48392 12.9838L14.5609 3.6642C14.9006 3.27217 15.4482 3.13247 15.9342 3.31378Z" fill="url(#paint0_linear_2878_366)"/>
<defs>
<linearGradient id="paint0_linear_2878_366" x1="15.4997" y1="3.23478" x2="15.4997" y2="26.7645" gradientUnits="userSpaceOnUse">
<stop stop-color="#137177"/>
<stop offset="1" stop-color="#1D9A6C"/>
</linearGradient>
</defs>
</svg>
