<svg width="35" height="36" viewBox="0 0 35 36" fill="none" xmlns="http://www.w3.org/2000/svg">
<path d="M34.3362 18.2679C34.3362 17.027 34.2248 15.8338 34.018 14.6883H17.5361V21.4576H26.9543C26.5486 23.6452 25.3157 25.4986 23.4623 26.7395C21.8952 27.7895 19.8907 28.4099 17.5361 28.4099C12.9782 28.4099 9.12023 25.3315 7.7441 21.1951C7.3941 20.1451 7.19523 19.0236 7.19523 17.8701C7.19523 16.7167 7.39409 15.5951 7.74409 14.5451C9.12023 10.4088 12.9782 7.33035 17.5361 7.33035C20.1055 7.33035 22.4123 8.2133 24.2259 9.9474L29.2452 4.92807C26.2146 2.10421 22.2532 0.370117 17.5361 0.370117C10.6952 0.370117 4.77704 4.29173 1.8975 10.011C0.712269 12.3735 0.0361328 15.0463 0.0361328 17.8701C0.0361328 20.694 0.712275 23.3667 1.8975 25.7292C4.77705 31.4485 10.6952 35.3701 17.5361 35.3701C22.2612 35.3701 26.2225 33.8031 29.118 31.1304C32.4271 28.0838 34.3362 23.5974 34.3362 18.2679Z" fill="url(#paint0_linear_2122_238)"/>
<defs>
<linearGradient id="paint0_linear_2122_238" x1="0.0353024" y1="17.8705" x2="34.3353" y2="17.8705" gradientUnits="userSpaceOnUse">
<stop stop-color="#137177"/>
<stop offset="1" stop-color="#1D9A6C"/>
</linearGradient>
</defs>
</svg>
