<svg width="25" height="25" viewBox="0 0 25 25" fill="none" xmlns="http://www.w3.org/2000/svg">
<path d="M24.0275 7.92216C23.9699 6.64434 23.7635 5.77004 23.4706 5.00623C23.1633 4.2184 22.7553 3.54586 22.0879 2.88293C21.4206 2.22 20.7533 1.80206 19.9659 1.49942C19.2025 1.20158 18.3288 0.999821 17.0517 0.942175C15.7699 0.884529 15.3618 0.870117 12.1067 0.870117C8.84688 0.870117 8.4388 0.884529 7.16174 0.942175C5.88469 0.999821 5.01091 1.20639 4.24756 1.49942C3.4554 1.80687 2.78327 2.21519 2.12073 2.88293C1.4582 3.55066 1.04052 4.2184 0.738058 5.00623C0.445199 5.77004 0.238758 6.64434 0.181146 7.92216C0.123535 9.20479 0.109132 9.61311 0.109132 12.8701C0.109132 16.1319 0.123535 16.5403 0.181146 17.8181C0.238758 19.0959 0.445199 19.9702 0.738058 20.734C1.04532 21.5218 1.4534 22.1944 2.12073 22.8573C2.78327 23.525 3.4554 23.9382 4.24276 24.2408C5.00611 24.5387 5.87989 24.7404 7.15694 24.7981C8.4388 24.8557 8.84688 24.8701 12.1019 24.8701C15.3618 24.8701 15.7699 24.8557 17.0469 24.7981C18.324 24.7404 19.1977 24.5339 19.9611 24.2408C20.7485 23.9334 21.4206 23.525 22.0831 22.8573C22.7457 22.1896 23.1633 21.5218 23.4658 20.734C23.7635 19.9702 23.9651 19.0959 24.0227 17.8181C24.0803 16.5355 24.0947 16.1271 24.0947 12.8701C24.0947 9.61311 24.0851 9.19998 24.0275 7.92216ZM21.8719 17.722C21.8191 18.8941 21.6222 19.533 21.459 19.951C21.243 20.5082 20.9789 20.9118 20.5564 21.3345C20.1339 21.7572 19.7355 22.0118 19.1737 22.2376C18.7513 22.4009 18.1127 22.5979 16.9461 22.6507C15.6834 22.7084 15.3042 22.7228 12.0971 22.7228C8.89009 22.7228 8.51081 22.7084 7.24816 22.6507C6.07673 22.5979 5.4382 22.4009 5.02051 22.2376C4.4636 22.0214 4.06032 21.7572 3.63784 21.3345C3.21535 20.9118 2.9609 20.513 2.73526 19.951C2.57202 19.5282 2.37519 18.8893 2.32237 17.722C2.26476 16.4586 2.25036 16.0791 2.25036 12.8701C2.25036 9.66115 2.26476 9.28165 2.32237 8.01824C2.37519 6.8461 2.57202 6.20719 2.73526 5.78925C2.9513 5.23201 3.21535 4.82848 3.63784 4.40575C4.06032 3.98301 4.4588 3.7284 5.02051 3.50262C5.443 3.33929 6.08153 3.14234 7.24816 3.08949C8.51081 3.03185 8.89009 3.01744 12.0971 3.01744C15.3042 3.01744 15.6834 3.03185 16.9461 3.08949C18.1175 3.14234 18.7561 3.33929 19.1737 3.50262C19.7307 3.7188 20.1339 3.98301 20.5564 4.40575C20.9789 4.82848 21.2334 5.2272 21.459 5.78925C21.6222 6.21199 21.8191 6.8509 21.8719 8.01824C21.9295 9.28165 21.9439 9.66115 21.9439 12.8701C21.9439 16.0791 21.9247 16.4586 21.8719 17.722Z" fill="url(#paint0_linear_2122_235)"/>
<path d="M12.0972 6.70198C8.68849 6.70198 5.93274 9.46419 5.93274 12.8701C5.93274 16.2808 8.69329 19.0383 12.0972 19.0383C15.5011 19.0383 18.2616 16.2712 18.2616 12.8701C18.2616 9.45939 15.5059 6.70198 12.0972 6.70198ZM12.0972 16.8717C9.88873 16.8717 8.09797 15.0799 8.09797 12.8701C8.09797 10.6603 9.88873 8.86852 12.0972 8.86852C14.3056 8.86852 16.0964 10.6603 16.0964 12.8701C16.0964 15.0799 14.3056 16.8717 12.0972 16.8717Z" fill="url(#paint1_linear_2122_235)"/>
<path d="M18.5016 7.90294C19.2971 7.90294 19.9419 7.25772 19.9419 6.46179C19.9419 5.66586 19.2971 5.02064 18.5016 5.02064C17.7062 5.02064 17.0613 5.66586 17.0613 6.46179C17.0613 7.25772 17.7062 7.90294 18.5016 7.90294Z" fill="url(#paint2_linear_2122_235)"/>
<path d="M0.0947266 12.8701C0.0947266 16.1319 0.109129 16.5403 0.166741 17.8181C0.224352 19.0959 0.430794 19.9702 0.723652 20.734C1.03091 21.5218 1.439 22.1944 2.10633 22.8573C2.76886 23.5202 3.441 23.9382 4.22835 24.2408C4.99171 24.5387 5.86548 24.7404 7.14254 24.7981C8.42439 24.8557 8.83247 24.8701 12.0875 24.8701C15.3474 24.8701 15.7555 24.8557 17.0325 24.7981C18.3096 24.7404 19.1833 24.5339 19.9467 24.2408C20.7341 23.9334 21.4062 23.525 22.0687 22.8573C22.7313 22.1944 23.1489 21.5218 23.4514 20.734C23.7491 19.9702 23.9507 19.0959 24.0083 17.8181C24.0659 16.5355 24.0803 16.1271 24.0803 12.8701C24.0803 9.60831 24.0659 9.19998 24.0083 7.92216C23.9507 6.64434 23.7443 5.77004 23.4514 5.00623C23.1441 4.2184 22.7361 3.54586 22.0687 2.88293C21.411 2.21519 20.7389 1.80206 19.9515 1.49942C19.1881 1.20158 18.3144 0.999821 17.0373 0.942175C15.7555 0.884529 15.3474 0.870117 12.0923 0.870117C8.83247 0.870117 8.42439 0.884529 7.14734 0.942175C5.87028 0.999821 4.99651 1.20639 4.23315 1.49942C3.4458 1.80687 2.77366 2.21519 2.11113 2.88293C1.4486 3.55066 1.03091 4.2184 0.728453 5.00623C0.430794 5.77004 0.224352 6.64434 0.166741 7.92216C0.109129 9.19998 0.0947266 9.60831 0.0947266 12.8701ZM2.25996 12.8701C2.25996 9.66595 2.27436 9.28165 2.33197 8.01824C2.38478 6.8461 2.58162 6.20719 2.74486 5.78925C2.9609 5.23201 3.22495 4.82848 3.64744 4.40575C4.06992 3.98301 4.4684 3.7284 5.03011 3.50262C5.4526 3.33929 6.09113 3.14234 7.25776 3.08949C8.52041 3.03185 8.89969 3.01744 12.1067 3.01744C15.3138 3.01744 15.693 3.03185 16.9557 3.08949C18.1271 3.14234 18.7657 3.33929 19.1833 3.50262C19.7403 3.7188 20.1435 3.98301 20.566 4.40575C20.9885 4.82848 21.243 5.2272 21.4686 5.78925C21.6318 6.21199 21.8287 6.8509 21.8815 8.01824C21.9391 9.28165 21.9535 9.66115 21.9535 12.8701C21.9535 16.0791 21.9391 16.4586 21.8815 17.722C21.8287 18.8941 21.6318 19.533 21.4686 19.951C21.2526 20.5082 20.9885 20.9118 20.566 21.3345C20.1435 21.7572 19.7451 22.0118 19.1833 22.2376C18.7609 22.4009 18.1223 22.5979 16.9557 22.6507C15.693 22.7084 15.3138 22.7228 12.1067 22.7228C8.89969 22.7228 8.52041 22.7084 7.25776 22.6507C6.08632 22.5979 5.4478 22.4009 5.03011 22.2376C4.4732 22.0214 4.06992 21.7572 3.64744 21.3345C3.22495 20.9118 2.9705 20.513 2.74486 19.951C2.58162 19.5282 2.38478 18.8893 2.33197 17.722C2.26956 16.4586 2.25996 16.0743 2.25996 12.8701Z" fill="url(#paint3_linear_2122_235)"/>
<defs>
<linearGradient id="paint0_linear_2122_235" x1="0.0941455" y1="12.8704" x2="24.0941" y2="12.8704" gradientUnits="userSpaceOnUse">
<stop stop-color="#137177"/>
<stop offset="1" stop-color="#1D9A6C"/>
</linearGradient>
<linearGradient id="paint1_linear_2122_235" x1="0.0941455" y1="12.8704" x2="24.0941" y2="12.8704" gradientUnits="userSpaceOnUse">
<stop stop-color="#137177"/>
<stop offset="1" stop-color="#1D9A6C"/>
</linearGradient>
<linearGradient id="paint2_linear_2122_235" x1="0.0941455" y1="12.8704" x2="24.0941" y2="12.8704" gradientUnits="userSpaceOnUse">
<stop stop-color="#137177"/>
<stop offset="1" stop-color="#1D9A6C"/>
</linearGradient>
<linearGradient id="paint3_linear_2122_235" x1="0.0941455" y1="12.8704" x2="24.0941" y2="12.8704" gradientUnits="userSpaceOnUse">
<stop stop-color="#137177"/>
<stop offset="1" stop-color="#1D9A6C"/>
</linearGradient>
</defs>
</svg>
