<svg width="68" height="37" viewBox="0 0 68 37" fill="none" xmlns="http://www.w3.org/2000/svg">
<path d="M55.9601 20.6927C50.5248 21.6002 45.0307 20.3079 40.6177 17.2733C44.4643 13.0915 49.9732 10.4707 56.0925 10.4707C60.5129 10.4707 64.6169 11.8356 68.0002 14.1733C66.0364 16.315 63.6019 18.0719 60.7629 19.2843C59.189 19.9594 57.5782 20.4241 55.9601 20.6927Z" fill="url(#paint0_linear_2074_943)"/>
<path d="M64.4551 30.8551C59.4832 31.7771 54.342 30.9059 49.9658 28.4012C45.5896 25.8965 42.2725 21.9254 40.6177 17.2064C45.5896 16.2771 50.7308 17.1483 55.107 19.653C59.4832 22.1577 62.8003 26.1361 64.4551 30.8551Z" fill="url(#paint1_linear_2074_943)"/>
<path d="M40.6174 17.2141C40.4556 20.4303 39.5362 23.5666 37.9401 26.3689C36.3368 29.1785 34.1009 31.5816 31.4089 33.3965C28.7097 35.2043 25.6279 36.3731 22.3918 36.8087C19.1556 37.2443 15.8679 36.9321 12.7788 35.9012C12.9406 32.6851 13.86 29.5488 15.456 26.7464C17.052 23.9368 19.288 21.5338 21.9872 19.7261C24.6865 17.9184 27.7682 16.7495 31.0044 16.3139C34.2332 15.871 37.5283 16.1832 40.6174 17.2141Z" fill="url(#paint2_linear_2074_943)"/>
<path d="M60.9537 31.2187C57.0041 31.2841 53.1133 30.2604 49.7227 28.2494C46.332 26.2457 43.5813 23.3417 41.7793 19.8714C43.7872 19.0801 45.9569 18.7607 48.1119 18.9349C50.2669 19.1092 52.3557 19.7698 54.2092 20.8661C56.0626 21.9623 57.6366 23.4724 58.806 25.2656C59.9755 27.0588 60.711 29.0988 60.9537 31.2187Z" fill="url(#paint3_linear_2074_943)"/>
<path d="M30.1661 21.2152C29.8277 22.7688 28.9672 24.1555 27.7169 25.1501C26.4665 26.1447 24.9073 26.6892 23.3039 26.6892C22.8626 26.6892 22.4213 26.6457 21.98 26.5658C22.3183 25.0122 23.1862 23.6255 24.4365 22.6309C25.6869 21.6363 27.2461 21.0918 28.8495 21.0918C29.2908 21.0918 29.7321 21.1354 30.1661 21.2152Z" fill="url(#paint4_linear_2074_943)"/>
<path fill-rule="evenodd" clip-rule="evenodd" d="M54.0269 0.268492L53.8908 0.484232C51.157 4.82094 47.497 8.50674 43.1703 11.293C38.8436 14.0793 33.9463 15.9003 28.8266 16.617C23.7076 17.3336 18.4918 16.9461 13.5498 15.4615C8.60046 13.9842 4.04416 11.4465 0.191891 8.04618L0 7.8768L0.34319 7.49797L0.535081 7.66735C4.33194 11.0187 8.82218 13.5194 13.699 14.9751L13.6994 14.9753C18.5689 16.4381 23.7088 16.8202 28.7543 16.1138C33.7992 15.4076 38.6251 13.6132 42.889 10.8674C47.1529 8.12154 50.7596 4.48932 53.4537 0.21574L53.5897 0L54.0269 0.268492Z" fill="#0D4A60"/>
<path fill-rule="evenodd" clip-rule="evenodd" d="M9.40996 2.92578L9.51337 3.15848C11.6422 7.94912 15.5364 11.7643 20.4113 13.8225L20.4116 13.8226C25.2865 15.8879 30.7717 16.0385 35.7556 14.2457L35.9975 14.1587L36.1738 14.6361L35.9319 14.7232C30.8249 16.5602 25.2042 16.406 20.2088 14.2897C15.2134 12.1806 11.2231 8.27125 9.04188 3.36261L8.93848 3.12991L9.40996 2.92578Z" fill="#0D4A60"/>
<path fill-rule="evenodd" clip-rule="evenodd" d="M30.2787 2.83218L30.108 3.02234C29.06 4.1896 28.4645 5.686 28.4148 7.24622C28.3724 8.80653 28.8757 10.3309 29.8531 11.5614C30.8311 12.7925 32.2128 13.6458 33.7574 13.9745C35.3018 14.3032 36.9176 14.0864 38.3209 13.3658L38.5493 13.2486L38.7869 13.6994L38.5585 13.8167C37.0493 14.5916 35.3112 14.825 33.6489 14.4713C31.9866 14.1175 30.5 13.1994 29.448 11.875C28.3955 10.5501 27.8544 8.90941 27.9001 7.23198L27.9002 7.23084C27.9535 5.55334 28.5937 3.94271 29.7227 2.68528L29.8934 2.49512L30.2787 2.83218Z" fill="#0D4A60"/>
<defs>
<linearGradient id="paint0_linear_2074_943" x1="40.6166" y1="15.7262" x2="68.0008" y2="15.7262" gradientUnits="userSpaceOnUse">
<stop stop-color="#0A2F51"/>
<stop offset="0.0363" stop-color="#0A3152"/>
<stop offset="1" stop-color="#137177"/>
</linearGradient>
<linearGradient id="paint1_linear_2074_943" x1="3346.65" y1="24.0308" x2="4779.65" y2="24.0308" gradientUnits="userSpaceOnUse">
<stop stop-color="#137177"/>
<stop offset="1" stop-color="#1D9A6C"/>
</linearGradient>
<linearGradient id="paint2_linear_2074_943" x1="12.7763" y1="26.5575" x2="40.6165" y2="26.5575" gradientUnits="userSpaceOnUse">
<stop stop-color="#137177"/>
<stop offset="1" stop-color="#1D9A6C"/>
</linearGradient>
<linearGradient id="paint3_linear_2074_943" x1="41.7818" y1="25.0547" x2="60.9552" y2="25.0547" gradientUnits="userSpaceOnUse">
<stop stop-color="#1D9A6C"/>
<stop offset="1" stop-color="#137177"/>
</linearGradient>
<linearGradient id="paint4_linear_2074_943" x1="21.9783" y1="23.8952" x2="30.1654" y2="23.8952" gradientUnits="userSpaceOnUse">
<stop stop-color="#0A2F51"/>
<stop offset="0.04" stop-color="#0A3152"/>
<stop offset="1" stop-color="#137177"/>
</linearGradient>
</defs>
</svg>
