<svg width="45" height="25" viewBox="0 0 45 25" fill="none" xmlns="http://www.w3.org/2000/svg">
<path d="M37.0325 13.6932C33.4356 14.2938 29.7997 13.4386 26.8794 11.4304C29.425 8.66308 33.0705 6.92871 37.1201 6.92871C40.0453 6.92871 42.7612 7.83193 45.0001 9.37893C43.7006 10.7962 42.0895 11.9589 40.2108 12.7612C39.1692 13.208 38.1033 13.5155 37.0325 13.6932Z" fill="url(#paint0_linear_2754_184)"/>
<path d="M42.6541 20.4187C39.3639 21.0288 35.9617 20.4523 33.0657 18.7948C30.1696 17.1373 27.9745 14.5093 26.8794 11.3865C30.1696 10.7715 33.5719 11.348 36.4679 13.0055C39.3639 14.663 41.559 17.2958 42.6541 20.4187Z" fill="url(#paint1_linear_2754_184)"/>
<path d="M26.8791 11.3913C26.772 13.5196 26.1636 15.5951 25.1074 17.4496C24.0463 19.3089 22.5667 20.8991 20.7853 22.1002C18.999 23.2965 16.9596 24.07 14.818 24.3582C12.6764 24.6465 10.5008 24.4399 8.45654 23.7577C8.56362 21.6294 9.17203 19.5539 10.2282 17.6994C11.2844 15.8401 12.7641 14.2499 14.5503 13.0536C16.3366 11.8573 18.376 11.0838 20.5176 10.7955C22.6543 10.5025 24.8348 10.7091 26.8791 11.3913Z" fill="url(#paint2_linear_2754_184)"/>
<path d="M40.3368 20.6596C37.7231 20.7028 35.1484 20.0254 32.9046 18.6946C30.6608 17.3686 28.8404 15.4468 27.6479 13.1504C28.9767 12.6267 30.4125 12.4153 31.8386 12.5306C33.2647 12.6459 34.647 13.0831 35.8736 13.8086C37.1001 14.534 38.1417 15.5333 38.9156 16.72C39.6895 17.9067 40.1762 19.2567 40.3368 20.6596Z" fill="url(#paint3_linear_2754_184)"/>
<path d="M19.9627 14.0397C19.7388 15.0678 19.1693 15.9854 18.3419 16.6436C17.5144 17.3018 16.4826 17.6622 15.4215 17.6622C15.1295 17.6622 14.8374 17.6333 14.5454 17.5805C14.7693 16.5524 15.3436 15.6347 16.1711 14.9765C16.9985 14.3183 18.0304 13.958 19.0914 13.958C19.3834 13.958 19.6755 13.9868 19.9627 14.0397Z" fill="url(#paint4_linear_2754_184)"/>
<path fill-rule="evenodd" clip-rule="evenodd" d="M35.753 0.177678L35.6629 0.320447C33.8538 3.19032 31.4317 5.62944 28.5685 7.47328C25.7052 9.31714 22.4644 10.5222 19.0764 10.9965C15.6888 11.4707 12.2372 11.2143 8.96675 10.2319C5.69146 9.2542 2.67627 7.57485 0.126986 5.32466L0 5.21257L0.22711 4.96188L0.354097 5.07397C2.86671 7.2918 5.83819 8.94667 9.06549 9.90998L9.06578 9.91006C12.2882 10.8781 15.6896 11.1309 19.0285 10.6635C22.367 10.1962 25.5607 9.00868 28.3823 7.19162C31.204 5.37453 33.5908 2.97086 35.3737 0.142769L35.4637 0L35.753 0.177678Z" fill="#0D4A60"/>
<path fill-rule="evenodd" clip-rule="evenodd" d="M6.22754 1.93555L6.29597 2.08954C7.70472 5.25981 10.2818 7.78455 13.5078 9.14656L13.508 9.14664C16.734 10.5134 20.3639 10.6131 23.6621 9.42663L23.8222 9.36905L23.9388 9.68503L23.7788 9.7426C20.3992 10.9583 16.6796 10.8562 13.3738 9.45576C10.068 8.06007 7.42741 5.47298 5.98396 2.22462L5.91553 2.07063L6.22754 1.93555Z" fill="#0D4A60"/>
<path fill-rule="evenodd" clip-rule="evenodd" d="M20.0372 1.87345L19.9243 1.99929C19.2307 2.77174 18.8367 3.762 18.8038 4.79449C18.7757 5.82705 19.1088 6.83585 19.7556 7.65013C20.4028 8.46484 21.3172 9.02949 22.3393 9.24701C23.3614 9.46451 24.4306 9.32109 25.3593 8.84423L25.5104 8.76663L25.6676 9.06498L25.5165 9.14258C24.5178 9.65542 23.3675 9.80986 22.2675 9.57576C21.1675 9.34167 20.1837 8.73406 19.4875 7.85764C18.791 6.98088 18.4329 5.89513 18.4632 4.78507L18.4632 4.78432C18.4985 3.67421 18.9222 2.60835 19.6693 1.77624L19.7823 1.65039L20.0372 1.87345Z" fill="#0D4A60"/>
<defs>
<linearGradient id="paint0_linear_2754_184" x1="26.8787" y1="10.4066" x2="45.0005" y2="10.4066" gradientUnits="userSpaceOnUse">
<stop stop-color="#0A2F51"/>
<stop offset="0.0363" stop-color="#0A3152"/>
<stop offset="1" stop-color="#137177"/>
</linearGradient>
<linearGradient id="paint1_linear_2754_184" x1="2214.69" y1="15.9026" x2="3163" y2="15.9026" gradientUnits="userSpaceOnUse">
<stop stop-color="#137177"/>
<stop offset="1" stop-color="#1D9A6C"/>
</linearGradient>
<linearGradient id="paint2_linear_2754_184" x1="8.45489" y1="17.5744" x2="26.8785" y2="17.5744" gradientUnits="userSpaceOnUse">
<stop stop-color="#137177"/>
<stop offset="1" stop-color="#1D9A6C"/>
</linearGradient>
<linearGradient id="paint3_linear_2754_184" x1="27.6496" y1="16.5805" x2="40.3379" y2="16.5805" gradientUnits="userSpaceOnUse">
<stop stop-color="#1D9A6C"/>
<stop offset="1" stop-color="#137177"/>
</linearGradient>
<linearGradient id="paint4_linear_2754_184" x1="14.5443" y1="15.8132" x2="19.9622" y2="15.8132" gradientUnits="userSpaceOnUse">
<stop stop-color="#0A2F51"/>
<stop offset="0.04" stop-color="#0A3152"/>
<stop offset="1" stop-color="#137177"/>
</linearGradient>
</defs>
</svg>
