<svg width="63" height="14" viewBox="0 0 63 14" fill="none" xmlns="http://www.w3.org/2000/svg">
<path d="M2.32167 1.81574C2.77609 1.81574 3.1453 1.44838 3.1453 0.996251C3.1453 0.544118 2.77609 0.176758 2.32167 0.176758C1.86726 0.176758 1.49805 0.544118 1.49805 0.996251C1.49805 1.44838 1.86726 1.81574 2.32167 1.81574Z" fill="#0D4A60"/>
<path d="M1.77505 2.49316H2.86849V10.2642C2.86849 11.0554 2.79038 11.8184 2.31467 12.3482C1.81766 12.9063 1.01533 13.0688 0 13.0688V11.9809C0.97273 11.9809 1.32774 11.8113 1.49105 11.6277C1.66855 11.4299 1.76795 11.0554 1.76795 10.2218V2.49316H1.77505Z" fill="#0D4A60"/>
<path fill-rule="evenodd" clip-rule="evenodd" d="M10.7568 9.07029C10.0468 9.805 9.04569 10.2642 7.94516 10.2642C5.78669 10.2642 4.04004 8.52631 4.04004 6.37868C4.04004 4.23105 5.78669 2.49316 7.94516 2.49316C9.05279 2.49316 10.0468 2.95236 10.7568 3.68708V2.49316H11.8503V10.2642H10.7568V9.07029ZM7.94516 9.13387C6.41861 9.13387 5.17607 7.89757 5.17607 6.37868C5.17607 4.8598 6.41861 3.6235 7.94516 3.6235C9.4717 3.6235 10.7142 4.8598 10.7142 6.37868C10.7142 7.89757 9.4717 9.13387 7.94516 9.13387Z" fill="#0D4A60"/>
<path fill-rule="evenodd" clip-rule="evenodd" d="M32.667 9.07029C31.957 9.805 30.9558 10.2642 29.8553 10.2642C27.6968 10.2642 25.9502 8.52631 25.9502 6.37868C25.9502 4.23105 27.6968 2.49316 29.8553 2.49316C30.9629 2.49316 31.957 2.95236 32.667 3.68708V2.49316H33.7604V10.2642H32.667V9.07029ZM29.8482 9.13387C28.3217 9.13387 27.0791 7.89757 27.0791 6.37868C27.0791 4.8598 28.3217 3.6235 29.8482 3.6235C31.3748 3.6235 32.6173 4.8598 32.6173 6.37868C32.6173 7.89757 31.3819 9.13387 29.8482 9.13387Z" fill="#0D4A60"/>
<path fill-rule="evenodd" clip-rule="evenodd" d="M47.7348 2.49316H46.6414V12.8498H47.7348V9.07029C48.4448 9.805 49.4459 10.2642 50.5536 10.2642C52.712 10.2642 54.4587 8.52631 54.4587 6.37868C54.4587 4.23105 52.712 2.49316 50.5536 2.49316C49.4459 2.49316 48.4448 2.95236 47.7348 3.68708V2.49316ZM50.5536 9.13387C49.027 9.13387 47.7845 7.89757 47.7845 6.37868C47.7845 4.8598 49.027 3.6235 50.5536 3.6235C52.0801 3.6235 53.3227 4.8598 53.3227 6.37868C53.3227 7.89757 52.0801 9.13387 50.5536 9.13387Z" fill="#0D4A60"/>
<path fill-rule="evenodd" clip-rule="evenodd" d="M35.4507 0H36.5441V10.2648H35.4507V0Z" fill="#0D4A60"/>
<path d="M45.7751 6.37868C45.7751 8.52631 44.0284 10.2642 41.87 10.2642C39.7115 10.2642 37.9648 8.52631 37.9648 6.37868C37.9648 4.23105 39.7115 2.49316 41.87 2.49316C44.0284 2.49316 45.7751 4.23105 45.7751 6.37868ZM39.1009 6.37868C39.1009 7.89757 40.3434 9.13387 41.87 9.13387C43.3965 9.13387 44.639 7.89757 44.639 6.37868C44.639 4.8598 43.3965 3.6235 41.87 3.6235C40.3363 3.6235 39.1009 4.85273 39.1009 6.37868Z" fill="#0D4A60"/>
<path fill-rule="evenodd" clip-rule="evenodd" d="M61.4452 3.17896C62.212 3.70174 62.7587 4.47885 63.0001 5.37605L61.9919 5.6445L56.5673 7.15632C56.6596 7.47422 56.8158 7.778 57.0217 8.04646C57.4193 8.56924 57.9945 8.92953 58.6335 9.07082C59.2796 9.21211 59.947 9.12027 60.5292 8.80943C61.1115 8.49859 61.5588 7.99701 61.8002 7.38945L62.8581 7.7992C62.5173 8.66107 61.8854 9.36753 61.0618 9.80553C60.2452 10.2435 59.2938 10.3707 58.385 10.1729C57.4762 9.97508 56.6738 9.46643 56.1058 8.72465C55.5449 7.98994 55.2609 7.07861 55.3177 6.15315C55.3674 5.22769 55.7508 4.35875 56.3898 3.68761C57.0288 3.01648 57.888 2.59967 58.811 2.50783C59.7553 2.41599 60.6783 2.64912 61.4452 3.17896ZM56.4821 6.04718C56.5531 5.45376 56.8158 4.90272 57.2276 4.47178C57.6821 3.99845 58.2927 3.70174 58.9459 3.6311C59.5991 3.56045 60.2594 3.73 60.7991 4.10442C61.0334 4.25985 61.2322 4.45765 61.4026 4.66959L56.4821 6.04718Z" fill="#0D4A60"/>
<path d="M21.3163 0H20.2229V10.3567H21.3163V6.91622H22.0406L24.7741 10.2578H26.1942L22.9636 6.32986L26.0096 2.48673H24.5824L21.8986 5.82828H21.3305V0H21.3163Z" fill="#0D4A60"/>
<path d="M19.3496 9.3188C18.7816 9.80626 18.0929 10.1171 17.3474 10.2231C16.6089 10.329 15.8492 10.2231 15.1747 9.91223C14.4931 9.60138 13.918 9.10687 13.5132 8.48518C13.1085 7.8635 12.8955 7.13585 12.8884 6.387C12.8884 5.64522 13.1014 4.91757 13.499 4.28882C13.9038 3.66008 14.4789 3.16556 15.1534 2.85471C15.8279 2.54387 16.5876 2.43084 17.3261 2.53681C18.0645 2.63571 18.7603 2.95362 19.3283 3.43401L18.5899 4.28882C18.1852 3.94266 17.6953 3.72366 17.1699 3.65301C16.6444 3.58237 16.1119 3.66008 15.6291 3.87908C15.1463 4.09808 14.7416 4.45131 14.4576 4.89637C14.1736 5.34144 14.0245 5.85716 14.0245 6.387C14.0245 6.91685 14.1807 7.43256 14.4647 7.87056C14.7487 8.31563 15.1605 8.66886 15.6433 8.88786C16.1261 9.10686 16.6586 9.18458 17.1841 9.10687C17.7095 9.02916 18.1994 8.81015 18.6041 8.46399L19.3496 9.3188Z" fill="#0D4A60"/>
</svg>
