<svg width="36" height="36" viewBox="0 0 36 36" fill="none" xmlns="http://www.w3.org/2000/svg">
<path d="M17.9596 0.689453C8.28457 0.689453 0.466797 8.52161 0.466797 18.1822C0.466797 25.5969 5.07395 31.9317 11.5816 34.4801C11.4232 33.0979 11.2936 30.9671 11.6391 29.4554C11.9559 28.0876 13.6836 20.7594 13.6836 20.7594C13.6836 20.7594 13.1653 19.7084 13.1653 18.1679C13.1653 15.7347 14.5762 13.9206 16.3327 13.9206C17.83 13.9206 18.5499 15.0436 18.5499 16.3826C18.5499 17.8799 17.5996 20.1259 17.0958 22.2135C16.6782 23.9556 17.974 25.3809 19.6873 25.3809C22.7971 25.3809 25.1871 22.0983 25.1871 17.376C25.1871 13.1864 22.178 10.2637 17.8732 10.2637C12.8917 10.2637 9.96905 13.9926 9.96905 17.8511C9.96905 19.3484 10.5449 20.9609 11.2648 21.8392C11.4088 22.0119 11.4232 22.1703 11.38 22.3431C11.2504 22.8902 10.9481 24.0852 10.8905 24.3299C10.8185 24.6467 10.6313 24.7187 10.3002 24.5603C8.14058 23.5237 6.78724 20.3275 6.78724 17.7647C6.78724 12.2505 10.7897 7.18265 18.3483 7.18265C24.4096 7.18265 29.132 11.5019 29.132 17.2896C29.132 23.3221 25.331 28.174 20.0616 28.174C18.2907 28.174 16.6206 27.2526 16.0592 26.1584C16.0592 26.1584 15.1809 29.4986 14.965 30.3192C14.5762 31.8454 13.5108 33.7458 12.7909 34.912C14.4323 35.4159 16.1599 35.6895 17.974 35.6895C27.6346 35.6895 35.4668 27.8573 35.4668 18.1967C35.4524 8.52161 27.6202 0.689453 17.9596 0.689453Z" fill="url(#paint0_linear_2131_138)"/>
<defs>
<linearGradient id="paint0_linear_2131_138" x1="0.46595" y1="18.1898" x2="35.4659" y2="18.1898" gradientUnits="userSpaceOnUse">
<stop stop-color="#137177"/>
<stop offset="1" stop-color="#1D9A6C"/>
</linearGradient>
</defs>
</svg>
