<svg width="43" height="36" viewBox="0 0 43 36" fill="none" xmlns="http://www.w3.org/2000/svg">
<path fill-rule="evenodd" clip-rule="evenodd" d="M3.66993 15.1405C15.0068 10.2012 22.5666 6.94491 26.3491 5.37163C37.149 0.879598 39.3931 0.0992834 40.8558 0.0735169C41.1775 0.0678499 41.8968 0.147578 42.3627 0.525653C42.7562 0.844892 42.8644 1.27614 42.9162 1.57881C42.968 1.88149 43.0325 2.57099 42.9812 3.10974C42.396 9.25899 39.8636 24.1816 38.5753 31.0689C38.0302 33.9831 36.9568 34.9603 35.9176 35.0559C33.6592 35.2637 31.9444 33.5634 29.757 32.1296C26.3343 29.886 24.4007 28.4893 21.0783 26.2999C17.2388 23.7697 19.7278 22.3791 21.9159 20.1064C22.4886 19.5116 32.4389 10.461 32.6315 9.63994C32.6556 9.53725 32.678 9.1545 32.4506 8.95239C32.2232 8.75028 31.8876 8.81939 31.6454 8.87436C31.3021 8.95227 25.8343 12.5663 15.2418 19.7165C13.6898 20.7822 12.284 21.3015 11.0245 21.2743C9.63593 21.2443 6.96494 20.4892 4.97933 19.8438C2.54391 19.0521 0.608283 18.6335 0.776833 17.2891C0.864624 16.5888 1.82899 15.8726 3.66993 15.1405Z" fill="url(#paint0_linear_2122_237)"/>
<defs>
<linearGradient id="paint0_linear_2122_237" x1="0.765579" y1="17.5736" x2="42.999" y2="17.5736" gradientUnits="userSpaceOnUse">
<stop stop-color="#137177"/>
<stop offset="1" stop-color="#1D9A6C"/>
</linearGradient>
</defs>
</svg>
