<svg width="32" height="36" viewBox="0 0 32 36" fill="none" xmlns="http://www.w3.org/2000/svg">
<path d="M22.9046 0.775391H16.8622V24.6159C16.8622 27.4566 14.5382 29.7899 11.6461 29.7899C8.75405 29.7899 6.43007 27.4566 6.43007 24.6159C6.43007 21.8261 8.70241 19.5435 11.4912 19.4421V13.4566C5.34554 13.558 0.387695 18.4783 0.387695 24.6159C0.387695 30.8044 5.44882 35.7754 11.6978 35.7754C17.9467 35.7754 23.0078 30.7537 23.0078 24.6159V12.3913C25.2802 14.0145 28.0689 14.9783 31.0127 15.029V9.04351C26.468 8.89134 22.9046 5.23915 22.9046 0.775391Z" fill="url(#paint0_linear_2122_236)"/>
<defs>
<linearGradient id="paint0_linear_2122_236" x1="0.386954" y1="18.2758" x2="31.012" y2="18.2758" gradientUnits="userSpaceOnUse">
<stop stop-color="#137177"/>
<stop offset="1" stop-color="#1D9A6C"/>
</linearGradient>
</defs>
</svg>
